<svg width="125" height="125" viewBox="0 0 125 125" fill="none" xmlns="http://www.w3.org/2000/svg">
<path d="M48.6901 14H13V49.6901H48.6901V14Z" fill="#27AE60"/>
<path d="M89.341 49.6901C99.1728 49.6901 107.143 41.7199 107.143 31.8882C107.143 22.0564 99.1728 14.0862 89.341 14.0862C79.5093 14.0862 71.5391 22.0564 71.5391 31.8882C71.5391 41.7199 79.5093 49.6901 89.341 49.6901Z" fill="#EC615B"/>
<path d="M13.797 69.499L49.2861 90L13.797 110.501L13.797 69.499Z" fill="#2F80ED"/>
<path d="M89.7279 81.1633C86.162 81.1633 83.2843 84.0326 83.2843 87.588C83.2843 91.1435 86.162 94.0128 89.7279 94.0128C93.2938 94.0128 96.1715 91.1435 96.1715 87.588C96.1715 84.0326 93.2729 81.1633 89.7279 81.1633Z" fill="#F6C828"/>
<path d="M69 69V111H113V69H69ZM104.659 101.061L103.241 102.475C102.782 102.953 102.01 102.953 101.531 102.475L96.4843 97.4851C96.255 97.2564 96.109 96.9446 96.109 96.6327V95.8218C94.2322 97.2149 92.1261 98.0257 89.7071 98.0257C83.9308 98.0257 79.2597 93.3475 79.2597 87.5881C79.2597 81.8287 83.9517 77.1505 89.728 77.1505C95.5043 77.1505 100.196 81.7871 100.196 87.5465C100.196 89.9792 99.3829 92.2663 97.9858 93.9297H98.7991C99.1118 93.9297 99.4246 94.0752 99.654 94.304L104.659 99.3149C105.138 99.8139 105.138 100.604 104.659 101.061Z" fill="#F6C828"/>
</svg>
