<svg width="63" height="59" viewBox="0 0 63 59" fill="none" xmlns="http://www.w3.org/2000/svg">
    <path d="M29.5008 17.0865C24.4257 17.0865 20.33 21.1172 20.33 26.1117C20.33 31.1063 24.4257 35.137 29.5008 35.137C34.5759 35.137 38.6716 31.1063 38.6716 26.1117C38.6716 21.1172 34.5463 17.0865 29.5008 17.0865Z" fill="#F6C828"/>
    <path d="M0 0V59H62.6227V0H31.3114H0ZM50.7511 45.0386L48.733 47.0248C48.08 47.6965 46.9819 47.6965 46.2993 47.0248L39.1169 40.0149C38.7905 39.6936 38.5827 39.2554 38.5827 38.8173V37.6782C35.9116 39.6351 32.914 40.7743 29.4713 40.7743C21.2502 40.7743 14.6021 34.2025 14.6021 26.1119C14.6021 18.0213 21.2799 11.4495 29.5009 11.4495C37.722 11.4495 44.3998 17.9629 44.3998 26.0535C44.3998 29.4708 43.2423 32.6837 41.2538 35.0203H42.4113C42.8565 35.0203 43.3017 35.2248 43.6282 35.546L50.7511 42.5852C51.4337 43.2861 51.4337 44.396 50.7511 45.0386Z" fill="#F6C828"/>
    <path fill-rule="evenodd" clip-rule="evenodd" d="M50.7511 45.0386L48.733 47.0248C48.08 47.6965 46.9819 47.6965 46.2993 47.0248L39.1169 40.0149C38.7905 39.6936 38.5827 39.2554 38.5827 38.8173V37.6782C35.9116 39.6351 32.914 40.7743 29.4713 40.7743C21.2502 40.7743 14.6021 34.2025 14.6021 26.1119C14.6021 18.0213 21.2799 11.4495 29.5009 11.4495C37.722 11.4495 44.3998 17.9629 44.3998 26.0535C44.3998 29.4708 43.2423 32.6837 41.2538 35.0203H42.4113C42.8565 35.0203 43.3017 35.2248 43.6282 35.546L50.7511 42.5852C51.4337 43.2861 51.4337 44.396 50.7511 45.0386ZM20.33 26.1117C20.33 21.1172 24.4257 17.0865 29.5008 17.0865C34.5463 17.0865 38.6716 21.1172 38.6716 26.1117C38.6716 31.1063 34.5759 35.137 29.5008 35.137C24.4257 35.137 20.33 31.1063 20.33 26.1117Z" fill="white"/>
</svg>
