<svg width="32" height="32" viewBox="0 0 32 32" fill="none" xmlns="http://www.w3.org/2000/svg">
<path d="M8.7207 7.99548H23.4473C23.603 7.99548 23.7305 7.86804 23.7305 7.71228C23.7305 6.29626 23.4189 4.99707 22.8136 3.8855C22.2047 2.77039 21.3091 1.87476 20.194 1.26587C19.0824 0.660523 17.7832 0.348999 16.3672 0.348999H15.8008C14.3848 0.348999 13.0856 0.660523 11.974 1.26587C10.8589 1.87476 9.96326 2.77039 9.35437 3.8855C8.74902 4.99707 8.4375 6.29626 8.4375 7.71228C8.4375 7.86804 8.56494 7.99548 8.7207 7.99548Z" fill="white"/>
<path d="M31.2354 16.2084H25.9961V12.6683C28.7148 12.6683 30.9167 10.4664 30.9167 7.74768C30.9167 7.59192 30.7893 7.46448 30.6335 7.46448H28.5095C28.3538 7.46448 28.2263 7.59192 28.2263 7.74768C28.2263 8.97961 27.228 9.97791 25.9961 9.97791H6.17188C4.93994 9.97791 3.94165 8.97961 3.94165 7.74768C3.94165 7.59192 3.81421 7.46448 3.65845 7.46448H1.53442C1.37866 7.46448 1.25122 7.59192 1.25122 7.74768C1.25122 10.4664 3.45313 12.6683 6.17188 12.6683V16.2084H0.932617C0.776855 16.2084 0.649414 16.3358 0.649414 16.4916V18.474C0.649414 18.6298 0.776855 18.7572 0.932617 18.7572H6.17188V22.1556C6.17188 22.3857 6.17896 22.6158 6.19666 22.8389C3.76819 23.8761 2.06543 26.2869 2.06543 29.0941C2.06543 29.2499 2.19287 29.3773 2.34863 29.3773H4.33105C4.48682 29.3773 4.61426 29.2499 4.61426 29.0941C4.61426 27.5294 5.46033 26.1594 6.72412 25.4231C6.93652 26.032 7.20557 26.6125 7.52771 27.1577C8.38794 28.6268 9.61633 29.8552 11.0854 30.7155C12.1085 31.3137 13.2449 31.735 14.4591 31.9368C14.6149 31.9368 14.7423 31.8093 14.7423 31.6536V15.2172C14.7423 15.0614 14.8698 14.934 15.0255 14.934H17.1495C17.3053 14.934 17.4327 15.0614 17.4327 15.2172V31.65C17.4327 31.8058 17.5602 31.9332 17.7159 31.9332C18.9302 31.7314 20.0665 31.3102 21.0896 30.7119C22.5587 29.8517 23.7871 28.6233 24.6473 27.1542C24.9695 26.6055 25.2385 26.0249 25.4509 25.4196C26.7076 26.1594 27.5537 27.5294 27.5537 29.0941C27.5537 29.2499 27.6812 29.3773 27.8369 29.3773H29.8193C29.9751 29.3773 30.1025 29.2499 30.1025 29.0941C30.1025 26.2869 28.3998 23.8761 25.9713 22.8389C25.9855 22.6123 25.9961 22.3857 25.9961 22.1556V18.7572H31.2354C31.3911 18.7572 31.5186 18.6298 31.5186 18.474V16.4916C31.5186 16.3358 31.3911 16.2084 31.2354 16.2084Z" fill="white"/>
</svg>
