<svg width="32" height="32" viewBox="0 0 32 32" fill="none" xmlns="http://www.w3.org/2000/svg">
    <path d="M6.71211 12.156C5.45106 12.4733 4.34928 13.2402 3.61378 14.3126C2.87828 15.385 2.55969 16.689 2.71785 17.9797C2.87602 19.2704 3.50006 20.459 4.47273 21.322C5.4454 22.1851 6.69975 22.6632 8.00011 22.6667H9.33344M16.0001 29.3333V17.3333V29.3333ZM16.0001 29.3333L12.6668 26.6667L16.0001 29.3333ZM16.0001 29.3333L19.3334 26.6667L16.0001 29.3333Z" stroke="white" stroke-width="2" stroke-linecap="round" stroke-linejoin="round"/>
    <path d="M21.1066 9.51728C20.6508 7.71271 19.526 6.14894 17.9601 5.14296C16.3941 4.13698 14.5043 3.76407 12.6736 4.09982C10.8429 4.43557 9.20834 5.45486 8.1013 6.95107C6.99427 8.44727 6.49757 10.3084 6.71189 12.1573C6.71189 12.1573 6.91589 13.3333 7.33322 13.9999" stroke="white" stroke-width="2" stroke-linecap="round" stroke-linejoin="round"/>
    <path d="M22.6668 22.6666C23.6082 22.6659 24.5388 22.4659 25.3973 22.0797C26.2558 21.6935 27.0228 21.1299 27.6478 20.4259C28.2728 19.7219 28.7416 18.8935 29.0233 17.9953C29.3051 17.0971 29.3934 16.1493 29.2825 15.2145C29.1716 14.2797 28.864 13.3789 28.3799 12.5716C27.8958 11.7642 27.2462 11.0685 26.4738 10.5303C25.7015 9.99208 24.8239 9.62354 23.8988 9.44893C22.9738 9.27432 22.0222 9.29761 21.1068 9.51725L19.3335 9.99992" stroke="white" stroke-width="2" stroke-linecap="round" stroke-linejoin="round"/>
</svg>
