<svg width="38" height="21" viewBox="0 0 38 21" fill="none" xmlns="http://www.w3.org/2000/svg">
<path d="M19.733 12.1894C20.7423 12.1894 21.5605 11.3711 21.5605 10.3618C21.5605 9.35247 20.7423 8.53425 19.733 8.53425C18.7236 8.53425 17.9054 9.35247 17.9054 10.3618C17.9054 11.3711 18.7236 12.1894 19.733 12.1894Z" fill="white"/>
<path d="M20.6467 16.3163C21.6561 16.3163 22.4743 15.4981 22.4743 14.4888C22.4743 13.4794 21.6561 12.6612 20.6467 12.6612C19.6374 12.6612 18.8192 13.4794 18.8192 14.4888C18.8192 15.4981 19.6374 16.3163 20.6467 16.3163Z" fill="white"/>
<path d="M21.5128 20.3863C22.5221 20.3863 23.3403 19.5681 23.3403 18.5588C23.3403 17.5494 22.5221 16.7312 21.5128 16.7312C20.5034 16.7312 19.6852 17.5494 19.6852 18.5588C19.6852 19.5681 20.5034 20.3863 21.5128 20.3863Z" fill="white"/>
<path d="M25.0195 16.3104C26.0289 16.3104 26.8471 15.4921 26.8471 14.4828C26.8471 13.4735 26.0289 12.6553 25.0195 12.6553C24.0102 12.6553 23.192 13.4735 23.192 14.4828C23.192 15.4921 24.0102 16.3104 25.0195 16.3104Z" fill="white"/>
<path d="M27.126 12.7103C28.1353 12.7103 28.9535 11.8921 28.9535 10.8828C28.9535 9.87346 28.1353 9.05524 27.126 9.05524C26.1166 9.05524 25.2984 9.87346 25.2984 10.8828C25.2984 11.8921 26.1166 12.7103 27.126 12.7103Z" fill="white"/>
<path d="M29.28 9.24656C30.2893 9.24656 31.1075 8.42834 31.1075 7.41901C31.1075 6.40968 30.2893 5.59146 29.28 5.59146C28.2706 5.59146 27.4524 6.40968 27.4524 7.41901C27.4524 8.42834 28.2706 9.24656 29.28 9.24656Z" fill="white"/>
<path d="M31.4472 5.6149C32.4565 5.6149 33.2747 4.79668 33.2747 3.78735C33.2747 2.77802 32.4565 1.9598 31.4472 1.9598C30.4378 1.9598 29.6196 2.77802 29.6196 3.78735C29.6196 4.79668 30.4378 5.6149 31.4472 5.6149Z" fill="white"/>
<path d="M35.7263 5.74713C36.7356 5.74713 37.5538 4.9289 37.5538 3.91958C37.5538 2.91025 36.7356 2.09202 35.7263 2.09202C34.7169 2.09202 33.8987 2.91025 33.8987 3.91958C33.8987 4.9289 34.7169 5.74713 35.7263 5.74713Z" fill="white"/>
<path d="M2.41105 20.386C3.42038 20.386 4.2386 19.5677 4.2386 18.5584C4.2386 17.5491 3.42038 16.7309 2.41105 16.7309C1.40172 16.7309 0.583496 17.5491 0.583496 18.5584C0.583496 19.5677 1.40172 20.386 2.41105 20.386Z" fill="white"/>
<path d="M3.27592 16.3163C4.28525 16.3163 5.10347 15.4981 5.10347 14.4888C5.10347 13.4794 4.28525 12.6612 3.27592 12.6612C2.26659 12.6612 1.44837 13.4794 1.44837 14.4888C1.44837 15.4981 2.26659 16.3163 3.27592 16.3163Z" fill="white"/>
<path d="M4.19068 12.1893C5.20001 12.1893 6.01823 11.3711 6.01823 10.3618C6.01823 9.35243 5.20001 8.5342 4.19068 8.5342C3.18135 8.5342 2.36313 9.35243 2.36313 10.3618C2.36313 11.3711 3.18135 12.1893 4.19068 12.1893Z" fill="white"/>
<path d="M10.2902 10.4842C10.2902 9.47483 9.47199 8.6566 8.46266 8.6566C7.45333 8.6566 6.63511 9.47483 6.63511 10.4842C6.63511 11.4935 7.45333 12.3117 8.46266 12.3117C9.47199 12.3117 10.2902 11.4935 10.2902 10.4842Z" fill="white"/>
<path d="M14.4512 10.4842C14.4512 9.47483 13.633 8.6566 12.6237 8.6566C11.6143 8.6566 10.7961 9.47483 10.7961 10.4842C10.7961 11.4935 11.6143 12.3117 12.6237 12.3117C13.633 12.3117 14.4512 11.4935 14.4512 10.4842Z" fill="white"/>
<path d="M5.00629 8.18296C6.01562 8.18296 6.83384 7.36474 6.83384 6.35541C6.83384 5.34608 6.01562 4.52786 5.00629 4.52786C3.99696 4.52786 3.17874 5.34608 3.17874 6.35541C3.17874 7.36474 3.99696 8.18296 5.00629 8.18296Z" fill="white"/>
<path d="M5.87116 4.10771C6.88049 4.10771 7.69871 3.28949 7.69871 2.28016C7.69871 1.27083 6.88049 0.452605 5.87116 0.452605C4.86183 0.452605 4.04361 1.27083 4.04361 2.28016C4.04361 3.28949 4.86183 4.10771 5.87116 4.10771Z" fill="white"/>
<path d="M11.9857 2.16093C11.9857 1.1516 11.1674 0.333374 10.1581 0.333374C9.14878 0.333374 8.33056 1.1516 8.33056 2.16093C8.33056 3.17026 9.14878 3.98848 10.1581 3.98848C11.1674 3.98848 11.9857 3.17026 11.9857 2.16093Z" fill="white"/>
<path d="M16.146 2.16093C16.146 1.1516 15.3278 0.333374 14.3185 0.333374C13.3091 0.333374 12.4909 1.1516 12.4909 2.16093C12.4909 3.17026 13.3091 3.98848 14.3185 3.98848C15.3278 3.98848 16.146 3.17026 16.146 2.16093Z" fill="white"/>
<path d="M20.3064 2.16093C20.3064 1.1516 19.4882 0.333374 18.4788 0.333374C17.4695 0.333374 16.6513 1.1516 16.6513 2.16093C16.6513 3.17026 17.4695 3.98848 18.4788 3.98848C19.4882 3.98848 20.3064 3.17026 20.3064 2.16093Z" fill="white"/>
</svg>
