<svg width="31" height="30" viewBox="0 0 31 30" fill="none" xmlns="http://www.w3.org/2000/svg">
<path d="M15.3959 0.5C7.05086 0.5 0.291748 7.15288 0.291748 15.3668C0.291748 21.9453 4.61532 27.5018 10.6192 29.4716C11.3744 29.6017 11.6576 29.1557 11.6576 28.7654C11.6576 28.4123 11.6388 27.2416 11.6388 25.9965C7.84383 26.6841 6.86206 25.0859 6.55998 24.2496C6.39006 23.8222 5.65373 22.5028 5.0118 22.1497C4.48315 21.871 3.72795 21.1834 4.99292 21.1648C6.18237 21.1462 7.03198 22.2426 7.31519 22.6886C8.67456 24.9372 10.8458 24.3054 11.7143 23.9151C11.8464 22.9488 12.2429 22.2984 12.6772 21.9267C9.31649 21.555 5.80477 20.2728 5.80477 14.5863C5.80477 12.9695 6.39006 11.6315 7.35295 10.5908C7.2019 10.2191 6.67326 8.6953 7.50399 6.65112C7.50399 6.65112 8.76896 6.26087 11.6576 8.17497C12.866 7.84046 14.1498 7.67321 15.4337 7.67321C16.7175 7.67321 18.0014 7.84046 19.2097 8.17497C22.0984 6.24229 23.3634 6.65112 23.3634 6.65112C24.1941 8.6953 23.6654 10.2191 23.5144 10.5908C24.4773 11.6315 25.0626 12.9509 25.0626 14.5863C25.0626 20.2914 21.532 21.555 18.1713 21.9267C18.7188 22.3913 19.1908 23.2833 19.1908 24.6771C19.1908 26.6655 19.172 28.2637 19.172 28.7654C19.172 29.1557 19.4552 29.6203 20.2104 29.4716C23.209 28.4755 25.8147 26.5788 27.6605 24.0485C29.5064 21.5182 30.4996 18.4818 30.5001 15.3668C30.5001 7.15288 23.741 0.5 15.3959 0.5Z" fill="white"/>
</svg>
