<svg width="36" height="33" viewBox="0 0 36 33" fill="none" xmlns="http://www.w3.org/2000/svg">
<path d="M35.2 17.5549L18.3238 0.683886C18.0485 0.408594 17.5585 0.408594 17.2832 0.683886L11.9204 6.04675L11.9201 3.28294C11.9201 2.87558 11.5898 2.54503 11.1822 2.54503H6.7664C6.35904 2.54503 6.02849 2.87533 6.02849 3.28294V11.9332L0.412412 17.5549C0.274766 17.6926 -0.00609957 18.1166 0.412412 18.5955L2.53768 20.7207C2.82412 21.0072 3.29206 21.0072 3.57824 20.7207L17.8062 6.49283L32.0341 20.7207C32.392 21.0951 32.9317 20.864 33.0746 20.7207L35.1999 18.5955C35.646 18.1714 35.3377 17.6925 35.2 17.5549ZM7.50994 4.02071H10.4502V7.52269L7.50994 10.463V4.02071ZM32.5517 19.163L18.3238 4.93506C18.0374 4.64861 17.5694 4.64861 17.2832 4.93506L3.06116 19.163L1.97089 18.0783L17.8062 2.24295L33.6363 18.0783L32.5517 19.163Z" fill="white"/>
<path d="M29.5735 20.165C29.1661 20.165 28.8356 20.4953 28.8356 20.9029V31.2378H6.7724V20.9029C6.7724 20.4955 6.4421 20.165 6.03449 20.165C5.62714 20.165 5.29659 20.4953 5.29659 20.9029V31.9705C5.29659 32.3778 5.62689 32.7084 6.03449 32.7084H29.5733C29.9807 32.7084 30.3112 32.3781 30.3112 31.9705V20.9029C30.3112 20.4953 29.9808 20.165 29.5735 20.165Z" fill="white"/>
<path d="M22.2169 26.0836C22.6242 26.0836 22.9548 25.7533 22.9548 25.3457V16.5247C22.9548 16.1174 22.6245 15.7868 22.2169 15.7868L13.3907 15.7871C12.9833 15.7871 12.6528 16.1174 12.6528 16.525V25.3512C12.6528 25.7585 12.9831 26.0891 13.3907 26.0891L22.2169 26.0888V26.0836ZM14.1285 17.2574H21.4849V24.6138H14.1285V17.2574Z" fill="white"/>
</svg>
